<svg width="420" height="509" viewBox="0 0 420 509" fill="none" xmlns="http://www.w3.org/2000/svg">
<g filter="url(#filter0_d)">
<path d="M116.31 153.951C131.585 130.062 141.726 117.822 161.307 97.0822C126.264 103.9 107.675 112.25 77.2329 133.381C91.8119 143.244 100.407 147.645 116.31 153.951Z" fill="#5D9FAD"/>
<path d="M180.253 169.68V107.972C163.803 121.405 151.821 135.148 135.256 161.21L180.253 169.68Z" fill="#5D9FAD"/>
<path d="M200.384 169.68V107.972C220.973 127.396 230.684 139.267 246.566 161.21C230.378 164.602 220.945 166.487 200.384 169.68Z" fill="#5D9FAD"/>
<path d="M265.512 153.951C249.772 130.526 239.741 118.033 219.33 97.0822C255.456 104.873 273.705 112.656 302.22 133.381C289.445 142.098 281.281 146.547 265.512 153.951Z" fill="#5D9FAD"/>
<path d="M318.798 146.691C302.304 158.773 292.772 164.549 274.985 172.1C291.767 206.736 297.243 229.165 301.036 273.737H375.637C368.698 218.841 357.672 190.533 318.798 146.691Z" fill="#5D9FAD"/>
<path d="M200.384 273.737V190.249C221.998 187.668 234.178 185.353 256.039 179.36C272.94 216.17 278.128 236.848 279.722 273.737H200.384Z" fill="#5D9FAD"/>
<path d="M180.253 273.737V190.249C156.956 189.064 144.724 186.776 124.599 179.36C109.136 213.567 104.289 234.375 100.916 273.737H180.253Z" fill="#5D9FAD"/>
<path d="M80.7853 273.737C83.8205 234.243 88.5616 212.01 105.652 172.1C88.5676 163.581 78.9949 158.035 61.839 146.691C22.8549 188.541 13.7448 217.9 5 273.737H80.7853Z" fill="#5D9FAD"/>
<path d="M80.7853 294.306H5C8.98323 348.355 21.9576 373.428 55.9182 412.883C72.5681 400.734 82.3927 394.605 100.916 385.053C88.3769 351.548 83.4911 331.877 80.7853 294.306Z" fill="#5D9FAD"/>
<path d="M119.862 377.794C107.865 350.29 103.174 332.611 100.916 294.306H180.253V365.694C155.953 366.455 142.717 369.022 119.862 377.794Z" fill="#5D9FAD"/>
<path d="M200.384 365.694V294.306H280.906C277.758 333.922 273.157 351.916 260.775 377.794C239.948 370.545 227.196 367.466 200.384 365.694Z" fill="#5D9FAD"/>
<path d="M279.722 385.053C294.654 392.538 302.669 397.346 316.43 406.833L309.325 345.125C311.14 340.335 312.33 338.165 315.246 336.655C319.055 334.852 321.712 334.386 328.272 335.445L360.244 362.064C368.948 338.659 372.604 324.147 375.637 294.306H301.036C296.824 333.51 292.011 353.245 279.722 385.053Z" fill="#5D9FAD"/>
<path d="M337.745 468.541L322.351 347.545L414.714 424.982L387.479 440.712L412.346 486.69L389.847 500L363.796 452.811L337.745 468.541Z" fill="#5D9FAD"/>
<path d="M70.128 427.402L110.389 403.203C127.334 434.568 139.257 448.661 162.491 470.961C127.318 466.313 107.106 456.949 70.128 427.402Z" fill="#5D9FAD"/>
<path d="M180.253 460.071C158.212 439.316 146.567 425.874 128.151 395.943C147.448 389.317 158.843 387.16 180.253 386.263V460.071Z" fill="#5D9FAD"/>
<path d="M200.384 460.071V386.263C224.14 386.798 234.259 390.063 252.092 395.816L252.486 395.943C234.601 425.885 223.124 439.789 200.384 460.071Z" fill="#5D9FAD"/>
<path d="M271.433 403.203C256.042 432.294 244.209 446.904 219.33 470.961C259.811 462.787 280.433 454.444 310.509 427.402L271.433 403.203Z" fill="#5D9FAD"/>
<path d="M116.31 153.951C131.585 130.062 141.726 117.822 161.307 97.0822C126.264 103.9 107.675 112.25 77.2329 133.381C91.8119 143.244 100.407 147.645 116.31 153.951Z" stroke="black" stroke-linecap="round" stroke-linejoin="round"/>
<path d="M180.253 169.68V107.972C163.803 121.405 151.821 135.148 135.256 161.21L180.253 169.68Z" stroke="black" stroke-linecap="round" stroke-linejoin="round"/>
<path d="M200.384 169.68V107.972C220.973 127.396 230.684 139.267 246.566 161.21C230.378 164.602 220.945 166.487 200.384 169.68Z" stroke="black" stroke-linecap="round" stroke-linejoin="round"/>
<path d="M265.512 153.951C249.772 130.526 239.741 118.033 219.33 97.0822C255.456 104.873 273.705 112.656 302.22 133.381C289.445 142.098 281.281 146.547 265.512 153.951Z" stroke="black" stroke-linecap="round" stroke-linejoin="round"/>
<path d="M318.798 146.691C302.304 158.773 292.772 164.549 274.985 172.1C291.767 206.736 297.243 229.165 301.036 273.737H375.637C368.698 218.841 357.672 190.533 318.798 146.691Z" stroke="black" stroke-linecap="round" stroke-linejoin="round"/>
<path d="M200.384 273.737V190.249C221.998 187.668 234.178 185.353 256.039 179.36C272.94 216.17 278.128 236.848 279.722 273.737H200.384Z" stroke="black" stroke-linecap="round" stroke-linejoin="round"/>
<path d="M180.253 273.737V190.249C156.956 189.064 144.724 186.776 124.599 179.36C109.136 213.567 104.289 234.375 100.916 273.737H180.253Z" stroke="black" stroke-linecap="round" stroke-linejoin="round"/>
<path d="M80.7853 273.737C83.8205 234.243 88.5616 212.01 105.652 172.1C88.5676 163.581 78.9949 158.035 61.839 146.691C22.8549 188.541 13.7448 217.9 5 273.737H80.7853Z" stroke="black" stroke-linecap="round" stroke-linejoin="round"/>
<path d="M80.7853 294.306H5C8.98323 348.355 21.9576 373.428 55.9182 412.883C72.5681 400.734 82.3927 394.605 100.916 385.053C88.3769 351.548 83.4911 331.877 80.7853 294.306Z" stroke="black" stroke-linecap="round" stroke-linejoin="round"/>
<path d="M119.862 377.794C107.865 350.29 103.174 332.611 100.916 294.306H180.253V365.694C155.953 366.455 142.717 369.022 119.862 377.794Z" stroke="black" stroke-linecap="round" stroke-linejoin="round"/>
<path d="M200.384 365.694V294.306H280.906C277.758 333.922 273.157 351.916 260.775 377.794C239.948 370.545 227.196 367.466 200.384 365.694Z" stroke="black" stroke-linecap="round" stroke-linejoin="round"/>
<path d="M279.722 385.053C294.654 392.538 302.669 397.346 316.43 406.833L309.325 345.125C311.14 340.335 312.33 338.165 315.246 336.655C319.055 334.852 321.712 334.386 328.272 335.445L360.244 362.064C368.948 338.659 372.604 324.147 375.637 294.306H301.036C296.824 333.51 292.011 353.245 279.722 385.053Z" stroke="black" stroke-linecap="round" stroke-linejoin="round"/>
<path d="M337.745 468.541L322.351 347.545L414.714 424.982L387.479 440.712L412.346 486.69L389.847 500L363.796 452.811L337.745 468.541Z" stroke="black" stroke-linecap="round" stroke-linejoin="round"/>
<path d="M70.128 427.402L110.389 403.203C127.334 434.568 139.257 448.661 162.491 470.961C127.318 466.313 107.106 456.949 70.128 427.402Z" stroke="black" stroke-linecap="round" stroke-linejoin="round"/>
<path d="M180.253 460.071C158.212 439.316 146.567 425.874 128.151 395.943C147.448 389.317 158.843 387.16 180.253 386.263V460.071Z" stroke="black" stroke-linecap="round" stroke-linejoin="round"/>
<path d="M200.384 460.071V386.263C224.14 386.798 234.259 390.063 252.092 395.816L252.486 395.943C234.601 425.885 223.124 439.789 200.384 460.071Z" stroke="black" stroke-linecap="round" stroke-linejoin="round"/>
<path d="M271.433 403.203C256.042 432.294 244.209 446.904 219.33 470.961C259.811 462.787 280.433 454.444 310.509 427.402L271.433 403.203Z" stroke="black" stroke-linecap="round" stroke-linejoin="round"/>
</g>
<g filter="url(#filter1_d)">
<path d="M115.712 66.6343L120.615 62.5204L130.88 74.3999C130.038 76.5859 128.554 79.049 126.429 81.7894C124.304 84.5297 121.965 86.9712 119.411 89.1139C114.713 93.0563 110.042 96.062 105.398 98.1309C100.755 100.2 96.172 101.217 91.6496 101.183C87.1346 101.056 82.7058 99.8556 78.3629 97.5825C74.0201 95.3093 69.7782 91.7767 65.6374 86.9846C61.3658 82.0411 58.514 77.2115 57.0821 72.4958C55.6067 67.7296 55.2341 63.1692 55.9644 58.8147C56.651 54.4097 58.2693 50.2672 60.8193 46.3872C63.3692 42.5072 66.5337 38.9817 70.3128 35.8106C72.1514 34.2679 73.8765 32.9509 75.4883 31.8595C77.0565 30.7176 78.5368 29.78 79.9294 29.0466C81.373 28.2704 82.758 27.6303 84.0846 27.1264C85.4111 26.6224 86.7338 26.1651 88.0529 25.7545L99.2331 38.6932L94.3304 42.8071L87.4654 34.8622L85.0853 34.2488C84.3056 34.468 83.1503 34.9152 81.6195 35.5906C80.1398 36.2231 78.0721 37.6535 75.4165 39.8818C72.6588 42.1959 70.4502 44.7887 68.791 47.6603C67.1317 50.5319 66.1929 53.6256 65.9746 56.9414C65.8074 60.2144 66.4554 63.717 67.9185 67.4493C69.338 71.1312 71.7695 74.9647 75.2129 78.9497C81.446 86.1632 88.1009 90.1945 95.1778 91.0437C102.262 91.7996 109.149 89.3707 115.839 83.757C117.678 82.2144 119.101 80.8027 120.109 79.522C121.124 78.148 121.742 76.9769 121.962 76.0087L121.793 73.6712L115.712 66.6343Z" fill="white"/>
</g>
<g filter="url(#filter2_d)">
<path d="M208.147 78L178.747 78V72.4H187.847L187.847 13.6L178.747 13.6V8L208.147 8V13.6L199.047 13.6L199.047 72.4H208.147V78Z" fill="white"/>
</g>
<g filter="url(#filter3_d)">
<path d="M284.421 104.903L260.06 84.4621L263.722 80.2249L271.612 86.8456L310.057 42.3544L296.344 30.8485L293.374 31.2276L284.94 40.9884L279.424 36.3603L292.958 20.6976L343.057 62.7359L329.523 78.3986L324.008 73.7706L332.442 64.0097L332.348 61.0595L318.636 49.5536L280.192 94.0448L288.082 100.666L284.421 104.903Z" fill="white"/>
</g>
<defs>
<filter id="filter0_d" x="0.5" y="96.5822" width="418.714" height="411.918" filterUnits="userSpaceOnUse" color-interpolation-filters="sRGB">
<feFlood flood-opacity="0" result="BackgroundImageFix"/>
<feColorMatrix in="SourceAlpha" type="matrix" values="0 0 0 0 0 0 0 0 0 0 0 0 0 0 0 0 0 0 127 0"/>
<feOffset dy="4"/>
<feGaussianBlur stdDeviation="2"/>
<feColorMatrix type="matrix" values="0 0 0 0 0 0 0 0 0 0 0 0 0 0 0 0 0 0 0.25 0"/>
<feBlend mode="normal" in2="BackgroundImageFix" result="effect1_dropShadow"/>
<feBlend mode="normal" in="SourceGraphic" in2="effect1_dropShadow" result="shape"/>
</filter>
<filter id="filter1_d" x="51.6017" y="25.7545" width="83.2781" height="83.4296" filterUnits="userSpaceOnUse" color-interpolation-filters="sRGB">
<feFlood flood-opacity="0" result="BackgroundImageFix"/>
<feColorMatrix in="SourceAlpha" type="matrix" values="0 0 0 0 0 0 0 0 0 0 0 0 0 0 0 0 0 0 127 0"/>
<feOffset dy="4"/>
<feGaussianBlur stdDeviation="2"/>
<feColorMatrix type="matrix" values="0 0 0 0 0 0 0 0 0 0 0 0 0 0 0 0 0 0 0.25 0"/>
<feBlend mode="normal" in2="BackgroundImageFix" result="effect1_dropShadow"/>
<feBlend mode="normal" in="SourceGraphic" in2="effect1_dropShadow" result="shape"/>
</filter>
<filter id="filter2_d" x="174.747" y="8" width="37.4" height="78" filterUnits="userSpaceOnUse" color-interpolation-filters="sRGB">
<feFlood flood-opacity="0" result="BackgroundImageFix"/>
<feColorMatrix in="SourceAlpha" type="matrix" values="0 0 0 0 0 0 0 0 0 0 0 0 0 0 0 0 0 0 127 0"/>
<feOffset dy="4"/>
<feGaussianBlur stdDeviation="2"/>
<feColorMatrix type="matrix" values="0 0 0 0 0 0 0 0 0 0 0 0 0 0 0 0 0 0 0.25 0"/>
<feBlend mode="normal" in2="BackgroundImageFix" result="effect1_dropShadow"/>
<feBlend mode="normal" in="SourceGraphic" in2="effect1_dropShadow" result="shape"/>
</filter>
<filter id="filter3_d" x="256.06" y="20.6976" width="90.9969" height="92.2052" filterUnits="userSpaceOnUse" color-interpolation-filters="sRGB">
<feFlood flood-opacity="0" result="BackgroundImageFix"/>
<feColorMatrix in="SourceAlpha" type="matrix" values="0 0 0 0 0 0 0 0 0 0 0 0 0 0 0 0 0 0 127 0"/>
<feOffset dy="4"/>
<feGaussianBlur stdDeviation="2"/>
<feColorMatrix type="matrix" values="0 0 0 0 0 0 0 0 0 0 0 0 0 0 0 0 0 0 0.25 0"/>
<feBlend mode="normal" in2="BackgroundImageFix" result="effect1_dropShadow"/>
<feBlend mode="normal" in="SourceGraphic" in2="effect1_dropShadow" result="shape"/>
</filter>
</defs>
</svg>
